{"title":"Miklos Jancso - Csend es kialtas [Silence and Cry] (1967)","uid":6216446,"size":1101485386,"categoryP":"video","categoryS":"movies","magnet":"?xt=urn:btih:f57fb6bf1202c55cfc3a401a8572a993526bcc1b&amp;dn=Miklos+Jancso+-+Csend+es+kialtas+%5BSilence+and+Cry%5D+%281967%29&amp;tr=udp%3A%2F%2Ftracker.openbittorrent.com%3A80&amp;tr=udp%3A%2F%2Fopen.demonii.com%3A1337&amp;tr=udp%3A%2F%2Ftracker.coppersurfer.tk%3A6969&amp;tr=udp%3A%2F%2Fexodus.desync.com%3A6969","seeders":0,"leechers":1,"uploader":"mfccorrea","files":5,"time":1299174911,"description":"MiklÃƒÂ³s JancsÃƒÂ³'s Silence and Cry is set during a turbulent era of disquiet, fear, persecution and terror, which permeates every corner of post-WWI Hungarian society. In 1919, after just a few months of communist rule the Hungarian Republic of Councils falls victim to a nationalist counter-revolution. Admiral Horthy, leader of the nationalist far right movement, becomes the self-proclaimed regent of Hungary, and assumes power as the legal Head of State. Soldiers of the short-lived Hungarian Red Army are now on the run from relentless secret policemen and patrol units of the nationalist Royal Gendarme. If caught, ex-Red Army soldiers are executed without mercy or proper trial. IstvÃƒÂ¡n Cserzi, a former soldier of the Red Army has fled to the Great Hungarian Plains and has taken refuge on a farm, which is run by two sympathetic women. Due to the generosity of these women and a former childhood pal, who is now a commandant of the local Royal Gendarme outfit, IstvÃƒÂ¡n is safely hidden from the ever-prying eyes of the secret policemen, who relentlessly roam the countryside searching for ex-Red Army men and their sympathisers. However, upon discovering that the women are secretly poisoning the mother-in-law and the husband, the legal owners of the farm, IstvÃƒÂ¡n must make the most difficult decision of his life. As a personal war is waging within his own consciousness over morality and self-preservation, IstvÃƒÂ¡n must decide whether to remain silent about the women's devious secret and preserve his own life, or to report their heinous crime to the Royal Gendarme, which would also mean certain death for him. Written by 21st Century DreamQuest Films Ltd\n\n   General\n      Complete name : Csend es kialtas.avi\n      Format : AVI\n      Format/Info : Audio Video Interleave\n      File size : 1.03 GiB\n      Duration : 1h 13mn\n      Overall bit rate : 2 000 Kbps\n      Writing application : FairUse Wizard - http://fairusewizard.com\n   Video #0\n      ID : 0\n      Format : MPEG-4 Visual\n      Format profile : AdvancedSimple@L5\n      Format settings, BVOP : Yes\n      Format settings, QPel : No\n      Format settings, GMC : No warppoints\n      Format settings, Matrix : Default (MPEG)\n      Muxing mode : Packed bitstream\n      Codec ID : XVID\n      Codec ID/Hint : XviD\n      Duration : 1h 13mn\n      Bit rate : 1 735 Kbps\n      Width : 672 pixels\n      Height : 288 pixels\n      Display aspect ratio : 2.35:1\n      Frame rate : 25.000 fps\n      Resolution : 24 bits\n      Colorimetry : 4:2:0\n      Scan type : Progressive\n      Bits/(Pixel*Frame) : 0.359\n      Stream size : 911 MiB (87%)\n      Writing library : XviD 1.2.1 (UTC 2008-12-04)\n   Audio #1\n      ID : 1\n      Format : AC-3\n      Format/Info : Audio Coding 3\n      Format profile : Dolby Digital\n      Codec ID : 2000\n      Duration : 1h 13mn\n      Bit rate mode : Constant\n      Bit rate : 256 Kbps\n      Channel(s) : 2 channels\n      Channel positions : L R\n      Sampling rate : 48.0 KHz\n      Stream size : 134 MiB (13%)\n      Alignment : Split accross interleaves\n      Interleave, duration : 40 ms (1.00 video frame)\n      Interleave, preload duration : 500 ms\n &lt;a href=&quot;\nhttp://www.imdb.com/title/tt0061536/&quot; rel=&quot;nofollow&quot; target=&quot;_NEW&quot;&gt;\nhttp://www.imdb.com/title/tt0061536/&lt;/a&gt;\n\nHungarian audio; English, French, Spanish and Portuguese subtitles\n\nMy rip\n\nMiklos Jancso - Csend es kialtas [Silence and Cry] (1967)","torrent":{"xt":"urn:btih:f57fb6bf1202c55cfc3a401a8572a993526bcc1b","amp;dn":"Miklos+Jancso+-+Csend+es+kialtas+%5BSilence+and+Cry%5D+%281967%29","amp;tr":["udp%3A%2F%2Ftracker.openbittorrent.com%3A80","udp%3A%2F%2Fopen.demonii.com%3A1337","udp%3A%2F%2Ftracker.coppersurfer.tk%3A6969","udp%3A%2F%2Fexodus.desync.com%3A6969"],"infoHash":"f57fb6bf1202c55cfc3a401a8572a993526bcc1b","infoHashBuffer":{"type":"Buffer","data":[245,127,182,191,18,2,197,92,252,58,64,26,133,114,169,147,82,107,204,27]},"announce":[],"urlList":[]}}